# xmcd
#
# Track frame offsets:
#	150
#	15285
#	31175
#	42657
#	54651
#	75258
#	97910
#	115160
#	128941
#	146841
#	176501
#	190205
#	202934
#	218172
#	243601
#	260075
#
# Disc length: 3709
#
# Revision: 1
# Processed by: cddbd v1.5.1PL0 Copyright (c) Steve Scherf et al.
# Submitted via: CdAid (MTCDDB.DLL V2003.07.15)
# Normalized: r0:DSETVAR1,TDELIM( - )
#
DISCID=db0e7b10
DTITLE=Various Artist - Lady Sings the blues
DYEAR=2003
DGENRE=Blues
TTITLE0=Etta James - At Last
TTITLE1=Dorothy Moore - Misty Blue
TTITLE2=Kay Starr - Baby won't you please come home
TTITLE3=Molly Johnston - Diamond in my hand
TTITLE4=The staple singers - Respect yourself
TTITLE5=Janis Joplin - Me and Bobby McGee
TTITLE6=Bobby Gentry - Ode to Billy Joe
TTITLE7=Little Esther - Aged and mellow blues
TTITLE8=Diana Krall - I'm just like a lucky so and so
TTITLE9=Dinah Washington - Call me irresponsible
TTITLE10=Sara Vaughan - Stormy wheather
TTITLE11=Billy Holiday - Godd bless the child
TTITLE12=Aretha Franklin - Respect
TTITLE13=Patti Labelle - Lady Marmelade
TTITLE14=Tina Turner - Night Time is the right time
TTITLE15=Eartha Kitt - C'est si bon
EXTD=ID3G:   0 YEAR: 2003
EXTT0=
EXTT1=
EXTT2=
EXTT3=
EXTT4=
EXTT5=
EXTT6=
EXTT7=
EXTT8=
EXTT9=
EXTT10=
EXTT11=
EXTT12=
EXTT13=
EXTT14=
EXTT15=
PLAYORDER=
